PathFileType	4	(X/Y/Z)	Patient4_TMGait_0pt5_02_right_21.trc.trc
DataRate	CameraRate	NumFrames	NumMarkers	Units	OrigDataRate	OrigDataStartFrame	OrigNumFrames
72.164948453608	72.164948453608	4	33	mm	72.164948453608	36	       141
Frame#	Time	Sacral			L.Shoulder			Chest			R.Shoulder			Neck			R.ASIS			L.ASIS			R.Thigh.Superior			R.Thigh.Lateral			R.Thigh.Inferior			R.Patella			L.Thigh.Superior			L.Thigh.Lateral			L.Thigh.Inferior			L.Patella			L.Shank.Superior			L.Shank.Lateral			L.Shank.Inferior			R.Shank.Superior			R.Shank.Lateral			R.Shank.Inferior			R.Heel			R.Midfoot.Superior			R.Midfoot.Lateral			R.Toe			L.Heel			L.Midfoot.Lateral			L.Midfoot.Superior			L.Toe			L.Elbow			L.Wrist			R.Elbow			R.Wrist			
		X1	Y1	Z1	X2	Y2	Z2	X3	Y3	Z3	X4	Y4	Z4	X5	Y5	Z5	X6	Y6	Z6	X7	Y7	Z7	X8	Y8	Z8	X9	Y9	Z9	X10	Y10	Z10	X11	Y11	Z11	X12	Y12	Z12	X13	Y13	Z13	X14	Y14	Z14	X15	Y15	Z15	X16	Y16	Z16	X17	Y17	Z17	X18	Y18	Z18	X19	Y19	Z19	X20	Y20	Z20	X21	Y21	Z21	X22	Y22	Z22	X23	Y23	Z23	X24	Y24	Z24	X25	Y25	Z25	X26	Y26	Z26	X27	Y27	Z27	X28	Y28	Z28	X29	Y29	Z29	X30	Y30	Z30	X31	Y31	Z31	X32	Y32	Z32	X33	Y33	Z33	

36	27.735000000000	586.216153943260	1003.390423082294	509.148035322755	789.444381706279	1437.031121299541	361.119751430482	876.726295339441	1352.210206397353	524.430179003750	783.132525039205	1417.805064912970	697.266649222981	782.685479111557	1488.471130841201	516.726987053214	807.650679709221	935.736553636058	637.564646827487	806.928205480203	955.975264290065	363.827304362077	871.021255575320	746.607830330633	608.170078617637	802.610914936225	632.082943131540	663.768506387692	887.352333910256	588.468474771182	584.110745416827	900.087003907606	497.953917037959	589.710082113209	858.986636788493	744.947370013924	396.300849204286	788.999588854599	626.058715539461	324.671568048842	876.076893709148	547.601733880015	390.961392024217	873.076213420438	459.058082710614	388.278782838273	803.884450589858	400.374144224359	380.199423883376	665.697175392027	358.298605361732	326.498277439140	646.057326327518	233.036898672356	385.155508468147	873.202565963271	407.473767785429	596.036534975778	807.073658230512	302.290809900155	660.422691542543	847.653705444948	208.372763407396	595.789081734322	713.328241245126	44.197370029808	573.703034034537	887.069295517123	97.941287724108	599.596869183939	801.077462563482	36.906014607742	643.260902073763	1008.346549908237	42.232528682763	618.560925548066	451.429574784123	171.099909581775	413.608813436056	513.184880235956	127.493235665962	336.008693214579	615.917480264564	133.320040749001	362.733549989830	693.644666076801	32.111287631306	337.714929017973	721.694859964957	1101.716949552455	215.071436422013	871.451875377482	886.918151744839	236.772744932595	730.348892463584	1064.369388993076	784.974291163454	841.867431665667	828.401343899509	791.775889921669	
37	27.748857142857	584.714038976469	1004.194306234997	513.264200972870	786.527833994520	1437.725565610026	363.371624339505	874.959692077982	1353.239066666547	526.255472154487	782.563607252237	1419.017076983821	699.659750619302	780.699408431540	1489.431924543921	518.980386906241	806.600331667194	936.717100487434	640.584501434197	804.517891558877	956.640053486906	366.925554492939	867.922406571892	745.810826882504	612.018933298042	797.804233510946	632.043783010867	666.701409916630	882.172369824040	587.812926511956	586.994102452222	893.656685839613	497.458156082025	591.990337480206	861.178474740811	749.045526834053	398.969583122560	795.604414826498	628.847969233223	326.167820413030	885.465425849013	552.653221022709	391.928888405515	884.439803369769	463.243503398563	388.588988087134	814.272712089404	404.006281664760	380.958748075463	674.408512597947	365.019929954409	328.498389468055	652.959928544466	239.701304831472	386.723988280485	866.694028339649	407.213909326511	598.043469682749	800.340292564929	301.869361189010	661.899989700173	840.885498971752	208.226863225955	596.880257602561	706.430657303670	44.057444093185	573.901683741316	880.172718649624	97.950202726973	600.005187868102	794.162685535619	36.793153238714	643.550063384271	1001.434503738796	42.384167449417	618.816261953730	456.859915467507	183.912489795377	416.608738924086	516.566915524437	138.028976186859	338.327247590092	620.210773406953	139.423070821917	364.355303117868	693.377650596170	32.511602390200	338.237966234797	718.366839706599	1102.046985661787	218.306942677032	864.078284536786	884.047997988078	236.885847310024	736.125998582393	1065.186667120108	790.067336343086	858.871431831885	834.913793965076	796.607073455333	
38	27.762714285714	583.006189064164	1005.047316522857	517.280190073614	783.418399690485	1438.326452563395	365.438015736424	873.116519259083	1354.217618594304	527.836483546614	782.080542185243	1420.285258784931	701.864611832439	778.681194078496	1490.377533617511	520.986097462310	805.345521143990	937.597586141712	643.432411995870	801.842520125890	957.282731779093	369.884585699682	864.560671337093	745.001655456036	615.539942221610	792.826462296057	632.040423478660	669.425649248027	876.724318867737	587.156591008123	589.614627986612	886.963452369326	496.987792433668	594.063672464257	862.892400798546	753.310073964048	401.368531944000	801.522649499170	632.076656756238	327.425817711708	894.001835224851	558.186538986038	392.639756795532	895.105669337115	468.098362431310	388.731127163292	824.370394653180	408.048538069774	381.524171182404	683.220979256511	371.142652337245	330.229822099937	660.713870122676	245.693107919573	388.166208866119	859.969052387788	406.967840328098	599.897145422470	793.410992685536	301.476234146809	663.280854004817	833.944793942834	208.086417196053	597.895869194443	699.381618984416	43.909863098618	574.107974638361	873.149458605095	97.903378773873	600.354513679803	787.113937079025	36.671641064838	643.822516065220	994.391716348190	42.490574183487	619.003789621145	463.715869223477	194.186370129503	419.484158072623	521.817999626434	146.805175031978	340.535578118097	626.137786532510	144.981769694334	365.868678667072	695.946095909162	33.351798645048	338.616774981650	714.687500728490	1102.240947155288	221.495980382252	856.180803370963	881.122321369579	236.651992760754	741.961414174838	1066.245311354634	795.019193000629	875.545371604544	842.148302985573	801.344554500851	
39	27.776571428571	581.099087178565	1005.954402423149	521.182592761592	780.149356987740	1438.864065736617	367.357015898017	871.213053768700	1355.143454393018	529.198382469054	781.701700359881	1421.600749792725	703.904133328089	776.662597937305	1491.310819881128	522.782808943847	803.906692577723	938.380271130885	646.075518123215	798.910837093582	957.952641330998	372.664249545209	860.983398889111	744.234814571730	618.622348793355	787.762488308294	632.089828017756	671.896344668937	871.081479260955	586.522786235059	591.915268027171	880.097747273351	496.558239722210	595.885743695098	864.093100333738	757.707428279589	403.492849476396	806.647825123949	635.688212611703	328.459943322431	901.563051830709	564.091294433920	393.083338874690	904.909336467556	473.522804131821	388.661262804463	834.062487431312	412.406061720904	381.850339347784	692.057342763528	376.393826815691	331.632239481774	669.428418041974	250.696299422069	389.375029244350	853.113823397166	406.748121484935	601.557664724822	786.372389784542	301.132653159869	664.537571245104	826.894848730306	207.964622222622	598.810160600318	692.229699145662	43.765836886454	574.313432546763	866.042444942949	97.824211821787	600.642000268618	779.978218562806	36.555077332835	644.069893784569	987.265264603937	42.565417029024	619.132262852305	472.138111361180	201.289806627813	422.097833594754	529.156063016637	153.260787024353	342.494555166838	633.955965106743	149.612416935199	367.128561279507	701.817669818909	34.569772735029	338.718232683434	710.631544286654	1102.355809144332	224.672316425899	847.715691450752	878.194858465245	236.088931702147	747.897634311160	1067.524692564710	799.793263276453	891.862923176059	850.038690272612	805.904310409439	
